<mxfile host="app.diagrams.net" modified="2022-03-21T10:44:35.382Z" agent="5.0 (Windows NT 10.0; Win64; x64) AppleWebKit/537.36 (KHTML, like Gecko) Chrome/99.0.4844.74 Safari/537.36 Edg/99.0.1150.46" etag="rOiL2JASpi-eHwtsYeIz" version="17.1.3" type="github">
  <diagram id="prtHgNgQTEPvFCAcTncT" name="Page-1">
    <mxGraphModel dx="1890" dy="1748" grid="1" gridSize="10" guides="1" tooltips="1" connect="1" arrows="1" fold="1" page="1" pageScale="1" pageWidth="827" pageHeight="1169" math="0" shadow="0">
      <root>
        <mxCell id="0" />
        <mxCell id="1" parent="0" />
        <mxCell id="2NV0xJlRkmsapn9ZG8iD-58" style="edgeStyle=orthogonalEdgeStyle;rounded=0;orthogonalLoop=1;jettySize=auto;html=1;fontColor=#3399FF;" edge="1" parent="1" source="2NV0xJlRkmsapn9ZG8iD-1">
          <mxGeometry relative="1" as="geometry">
            <mxPoint x="-105" y="70" as="targetPoint" />
          </mxGeometry>
        </mxCell>
        <mxCell id="2NV0xJlRkmsapn9ZG8iD-1" value="A机" style="rounded=0;whiteSpace=wrap;html=1;" vertex="1" parent="1">
          <mxGeometry x="-140" y="-46.25" width="70" height="50" as="geometry" />
        </mxCell>
        <mxCell id="2NV0xJlRkmsapn9ZG8iD-74" value="" style="edgeStyle=orthogonalEdgeStyle;rounded=0;orthogonalLoop=1;jettySize=auto;html=1;fontColor=#000000;" edge="1" parent="1" source="2NV0xJlRkmsapn9ZG8iD-20" target="2NV0xJlRkmsapn9ZG8iD-73">
          <mxGeometry relative="1" as="geometry" />
        </mxCell>
        <mxCell id="2NV0xJlRkmsapn9ZG8iD-20" value="" style="swimlane;startSize=0;" vertex="1" collapsed="1" parent="1">
          <mxGeometry x="-130" y="70" width="50" height="40" as="geometry">
            <mxRectangle x="-130" y="70" width="380" height="420" as="alternateBounds" />
          </mxGeometry>
        </mxCell>
        <mxCell id="2NV0xJlRkmsapn9ZG8iD-45" value="" style="edgeStyle=orthogonalEdgeStyle;rounded=0;orthogonalLoop=1;jettySize=auto;html=1;fontColor=#000000;" edge="1" parent="2NV0xJlRkmsapn9ZG8iD-20" source="2NV0xJlRkmsapn9ZG8iD-21" target="2NV0xJlRkmsapn9ZG8iD-41">
          <mxGeometry relative="1" as="geometry" />
        </mxCell>
        <mxCell id="2NV0xJlRkmsapn9ZG8iD-21" value="A机OS生成DHCP请求报文" style="rounded=1;whiteSpace=wrap;html=1;" vertex="1" parent="2NV0xJlRkmsapn9ZG8iD-20">
          <mxGeometry x="100" y="2.5" width="120" height="60" as="geometry" />
        </mxCell>
        <mxCell id="2NV0xJlRkmsapn9ZG8iD-47" value="" style="edgeStyle=orthogonalEdgeStyle;rounded=0;orthogonalLoop=1;jettySize=auto;html=1;fontColor=#3399FF;" edge="1" parent="2NV0xJlRkmsapn9ZG8iD-20" source="2NV0xJlRkmsapn9ZG8iD-41" target="2NV0xJlRkmsapn9ZG8iD-46">
          <mxGeometry relative="1" as="geometry" />
        </mxCell>
        <mxCell id="2NV0xJlRkmsapn9ZG8iD-41" value="&lt;span style=&quot;font-family: &amp;#34;helvetica&amp;#34;&quot;&gt;目的端口：67（DHCP服务器）；&lt;br&gt;&lt;/span&gt;&lt;span style=&quot;font-family: &amp;#34;helvetica&amp;#34;&quot;&gt;源端口：68（DHCP客户）；&lt;br&gt;UDP报文&lt;/span&gt;" style="rounded=1;whiteSpace=wrap;html=1;fontColor=#000000;" vertex="1" parent="2NV0xJlRkmsapn9ZG8iD-20">
          <mxGeometry x="50" y="102.5" width="220" height="47.5" as="geometry" />
        </mxCell>
        <mxCell id="2NV0xJlRkmsapn9ZG8iD-52" value="" style="edgeStyle=orthogonalEdgeStyle;rounded=0;orthogonalLoop=1;jettySize=auto;html=1;fontColor=#3399FF;" edge="1" parent="2NV0xJlRkmsapn9ZG8iD-20" source="2NV0xJlRkmsapn9ZG8iD-46" target="2NV0xJlRkmsapn9ZG8iD-51">
          <mxGeometry relative="1" as="geometry" />
        </mxCell>
        <mxCell id="2NV0xJlRkmsapn9ZG8iD-46" value="目的IP：255.255.255.255（广播）；&lt;br&gt;源IP：0.0.0.0（还未分配）；IP报文" style="whiteSpace=wrap;html=1;fontColor=#000000;rounded=1;" vertex="1" parent="2NV0xJlRkmsapn9ZG8iD-20">
          <mxGeometry x="40" y="200" width="240" height="60" as="geometry" />
        </mxCell>
        <mxCell id="2NV0xJlRkmsapn9ZG8iD-49" value="放入" style="text;html=1;align=center;verticalAlign=middle;resizable=0;points=[];autosize=1;strokeColor=none;fillColor=none;fontColor=#3399FF;" vertex="1" parent="2NV0xJlRkmsapn9ZG8iD-20">
          <mxGeometry x="160" y="72.5" width="40" height="20" as="geometry" />
        </mxCell>
        <mxCell id="2NV0xJlRkmsapn9ZG8iD-50" value="放入" style="text;html=1;align=center;verticalAlign=middle;resizable=0;points=[];autosize=1;strokeColor=none;fillColor=none;fontColor=#3399FF;" vertex="1" parent="2NV0xJlRkmsapn9ZG8iD-20">
          <mxGeometry x="160" y="170" width="40" height="20" as="geometry" />
        </mxCell>
        <mxCell id="2NV0xJlRkmsapn9ZG8iD-51" value="目的MAC：FF:FF:FF:FF:FF:FF；&lt;br&gt;源MAC：A机自带（A_MAC）；&lt;br&gt;CRC；&lt;br&gt;以太网帧" style="rounded=1;whiteSpace=wrap;html=1;fontColor=#000000;" vertex="1" parent="2NV0xJlRkmsapn9ZG8iD-20">
          <mxGeometry x="55" y="320" width="210" height="60" as="geometry" />
        </mxCell>
        <mxCell id="2NV0xJlRkmsapn9ZG8iD-54" value="放入" style="text;html=1;align=center;verticalAlign=middle;resizable=0;points=[];autosize=1;strokeColor=none;fillColor=none;fontColor=#3399FF;" vertex="1" parent="2NV0xJlRkmsapn9ZG8iD-20">
          <mxGeometry x="160" y="280" width="40" height="20" as="geometry" />
        </mxCell>
        <mxCell id="2NV0xJlRkmsapn9ZG8iD-82" style="edgeStyle=orthogonalEdgeStyle;rounded=0;orthogonalLoop=1;jettySize=auto;html=1;entryX=0.5;entryY=0;entryDx=0;entryDy=0;fontColor=#000000;" edge="1" parent="1" source="2NV0xJlRkmsapn9ZG8iD-73" target="2NV0xJlRkmsapn9ZG8iD-80">
          <mxGeometry relative="1" as="geometry" />
        </mxCell>
        <mxCell id="2NV0xJlRkmsapn9ZG8iD-85" style="edgeStyle=orthogonalEdgeStyle;rounded=0;orthogonalLoop=1;jettySize=auto;html=1;entryX=0;entryY=0.5;entryDx=0;entryDy=0;fontColor=#000000;" edge="1" parent="1" source="2NV0xJlRkmsapn9ZG8iD-73" target="2NV0xJlRkmsapn9ZG8iD-84">
          <mxGeometry relative="1" as="geometry" />
        </mxCell>
        <mxCell id="2NV0xJlRkmsapn9ZG8iD-73" value="交换机；&lt;br&gt;在交换机内部广播以太网帧到全部交换机出口，而路由器与其中一个出口相连" style="whiteSpace=wrap;html=1;fontStyle=1;startSize=0;" vertex="1" parent="1">
          <mxGeometry x="-170" y="180" width="130" height="100" as="geometry" />
        </mxCell>
        <mxCell id="2NV0xJlRkmsapn9ZG8iD-80" value="其他主机，其他路由器，其他交换机" style="rounded=0;whiteSpace=wrap;html=1;" vertex="1" parent="1">
          <mxGeometry x="-145" y="340" width="80" height="70" as="geometry" />
        </mxCell>
        <mxCell id="2NV0xJlRkmsapn9ZG8iD-83" value="其他出口" style="text;html=1;align=center;verticalAlign=middle;resizable=0;points=[];autosize=1;strokeColor=none;fillColor=none;fontColor=#3399FF;" vertex="1" parent="1">
          <mxGeometry x="-165" y="300" width="60" height="20" as="geometry" />
        </mxCell>
        <mxCell id="2NV0xJlRkmsapn9ZG8iD-100" style="edgeStyle=orthogonalEdgeStyle;rounded=0;orthogonalLoop=1;jettySize=auto;html=1;entryX=0;entryY=0.5;entryDx=0;entryDy=0;fontColor=#000000;" edge="1" parent="1" source="2NV0xJlRkmsapn9ZG8iD-84" target="2NV0xJlRkmsapn9ZG8iD-86">
          <mxGeometry relative="1" as="geometry" />
        </mxCell>
        <mxCell id="2NV0xJlRkmsapn9ZG8iD-84" value="默认网关路由器" style="ellipse;whiteSpace=wrap;html=1;rounded=0;" vertex="1" parent="1">
          <mxGeometry y="202.5" width="55" height="55" as="geometry" />
        </mxCell>
        <mxCell id="2NV0xJlRkmsapn9ZG8iD-126" value="" style="edgeStyle=orthogonalEdgeStyle;rounded=0;orthogonalLoop=1;jettySize=auto;html=1;fontColor=#000000;" edge="1" parent="1" source="2NV0xJlRkmsapn9ZG8iD-86" target="2NV0xJlRkmsapn9ZG8iD-125">
          <mxGeometry relative="1" as="geometry" />
        </mxCell>
        <mxCell id="2NV0xJlRkmsapn9ZG8iD-86" value="" style="swimlane;startSize=0;" vertex="1" collapsed="1" parent="1">
          <mxGeometry x="110" y="210" width="50" height="40" as="geometry">
            <mxRectangle x="110" y="210" width="220" height="490" as="alternateBounds" />
          </mxGeometry>
        </mxCell>
        <mxCell id="2NV0xJlRkmsapn9ZG8iD-103" value="" style="edgeStyle=orthogonalEdgeStyle;rounded=0;orthogonalLoop=1;jettySize=auto;html=1;fontColor=#000000;" edge="1" parent="2NV0xJlRkmsapn9ZG8iD-86" source="2NV0xJlRkmsapn9ZG8iD-101" target="2NV0xJlRkmsapn9ZG8iD-102">
          <mxGeometry relative="1" as="geometry" />
        </mxCell>
        <mxCell id="2NV0xJlRkmsapn9ZG8iD-101" value="以太网帧" style="rounded=1;whiteSpace=wrap;html=1;fontColor=#000000;" vertex="1" parent="2NV0xJlRkmsapn9ZG8iD-86">
          <mxGeometry x="30" y="20" width="100" height="40" as="geometry" />
        </mxCell>
        <mxCell id="2NV0xJlRkmsapn9ZG8iD-106" value="" style="edgeStyle=orthogonalEdgeStyle;rounded=0;orthogonalLoop=1;jettySize=auto;html=1;fontColor=#000000;" edge="1" parent="2NV0xJlRkmsapn9ZG8iD-86" source="2NV0xJlRkmsapn9ZG8iD-102">
          <mxGeometry relative="1" as="geometry">
            <mxPoint x="80" y="190" as="targetPoint" />
          </mxGeometry>
        </mxCell>
        <mxCell id="2NV0xJlRkmsapn9ZG8iD-102" value="IP报文" style="whiteSpace=wrap;html=1;fontColor=#000000;rounded=1;" vertex="1" parent="2NV0xJlRkmsapn9ZG8iD-86">
          <mxGeometry x="20" y="110" width="120" height="30" as="geometry" />
        </mxCell>
        <mxCell id="2NV0xJlRkmsapn9ZG8iD-104" value="抽取IP报文" style="text;html=1;align=center;verticalAlign=middle;resizable=0;points=[];autosize=1;strokeColor=none;fillColor=none;fontColor=#3399FF;" vertex="1" parent="2NV0xJlRkmsapn9ZG8iD-86">
          <mxGeometry x="75" y="80" width="70" height="20" as="geometry" />
        </mxCell>
        <mxCell id="2NV0xJlRkmsapn9ZG8iD-112" value="抽取UDP报文" style="text;html=1;align=center;verticalAlign=middle;resizable=0;points=[];autosize=1;strokeColor=none;fillColor=none;fontColor=#3399FF;" vertex="1" parent="2NV0xJlRkmsapn9ZG8iD-86">
          <mxGeometry x="100" y="280" width="90" height="20" as="geometry" />
        </mxCell>
        <mxCell id="2NV0xJlRkmsapn9ZG8iD-113" value="DHCP报文" style="rounded=1;whiteSpace=wrap;html=1;fontColor=#000000;" vertex="1" parent="2NV0xJlRkmsapn9ZG8iD-86">
          <mxGeometry x="25" y="400" width="120" height="60" as="geometry" />
        </mxCell>
        <mxCell id="2NV0xJlRkmsapn9ZG8iD-124" value="" style="edgeStyle=orthogonalEdgeStyle;rounded=0;orthogonalLoop=1;jettySize=auto;html=1;fontColor=#000000;" edge="1" parent="2NV0xJlRkmsapn9ZG8iD-86" source="2NV0xJlRkmsapn9ZG8iD-110" target="2NV0xJlRkmsapn9ZG8iD-113">
          <mxGeometry relative="1" as="geometry" />
        </mxCell>
        <mxCell id="2NV0xJlRkmsapn9ZG8iD-110" value="UDP报文" style="whiteSpace=wrap;html=1;fontColor=#000000;rounded=1;" vertex="1" parent="2NV0xJlRkmsapn9ZG8iD-86">
          <mxGeometry x="25" y="330" width="120" height="40" as="geometry" />
        </mxCell>
        <mxCell id="2NV0xJlRkmsapn9ZG8iD-122" value="" style="edgeStyle=orthogonalEdgeStyle;rounded=0;orthogonalLoop=1;jettySize=auto;html=1;fontColor=#000000;" edge="1" parent="2NV0xJlRkmsapn9ZG8iD-86" source="2NV0xJlRkmsapn9ZG8iD-119" target="2NV0xJlRkmsapn9ZG8iD-110">
          <mxGeometry relative="1" as="geometry" />
        </mxCell>
        <mxCell id="2NV0xJlRkmsapn9ZG8iD-119" value="发现目的IP是255.255.255.255，路由器知道要向上交付，而非继续转发" style="rounded=1;whiteSpace=wrap;html=1;fontColor=#000000;" vertex="1" parent="2NV0xJlRkmsapn9ZG8iD-86">
          <mxGeometry x="20" y="190" width="130" height="70" as="geometry" />
        </mxCell>
        <mxCell id="2NV0xJlRkmsapn9ZG8iD-141" style="edgeStyle=orthogonalEdgeStyle;rounded=0;orthogonalLoop=1;jettySize=auto;html=1;entryX=0;entryY=0.5;entryDx=0;entryDy=0;fontColor=#000000;" edge="1" parent="1" source="2NV0xJlRkmsapn9ZG8iD-125" target="2NV0xJlRkmsapn9ZG8iD-127">
          <mxGeometry relative="1" as="geometry" />
        </mxCell>
        <mxCell id="2NV0xJlRkmsapn9ZG8iD-125" value="DHCP服务器；&lt;br&gt;分配IP地址给A机（A.A.A.A）;&lt;br&gt;给出DNS服务器的IP地址（D.D.D.D）;&lt;br&gt;给出默认网关路由器IP（L.L.L.L）；&lt;br&gt;给出子网块" style="whiteSpace=wrap;html=1;fontColor=#000000;rounded=1;" vertex="1" parent="1">
          <mxGeometry x="260" y="190" width="220" height="80" as="geometry" />
        </mxCell>
        <mxCell id="2NV0xJlRkmsapn9ZG8iD-127" value="" style="swimlane;startSize=0;" vertex="1" collapsed="1" parent="1">
          <mxGeometry x="537.5" y="210" width="50" height="40" as="geometry">
            <mxRectangle x="537.5" y="210" width="182.5" height="420" as="alternateBounds" />
          </mxGeometry>
        </mxCell>
        <mxCell id="2NV0xJlRkmsapn9ZG8iD-128" value="" style="edgeStyle=orthogonalEdgeStyle;rounded=0;orthogonalLoop=1;jettySize=auto;html=1;fontColor=#000000;" edge="1" parent="2NV0xJlRkmsapn9ZG8iD-127" source="2NV0xJlRkmsapn9ZG8iD-129">
          <mxGeometry relative="1" as="geometry">
            <mxPoint x="85" y="130" as="targetPoint" />
          </mxGeometry>
        </mxCell>
        <mxCell id="2NV0xJlRkmsapn9ZG8iD-129" value="组装成DHCP ACK报文" style="rounded=1;whiteSpace=wrap;html=1;fontColor=#000000;" vertex="1" parent="2NV0xJlRkmsapn9ZG8iD-127">
          <mxGeometry x="22.5" width="125" height="80" as="geometry" />
        </mxCell>
        <mxCell id="2NV0xJlRkmsapn9ZG8iD-130" value="" style="edgeStyle=orthogonalEdgeStyle;rounded=0;orthogonalLoop=1;jettySize=auto;html=1;fontColor=#000000;" edge="1" parent="2NV0xJlRkmsapn9ZG8iD-127">
          <mxGeometry relative="1" as="geometry">
            <mxPoint x="85" y="210" as="targetPoint" />
            <mxPoint x="85" y="160" as="sourcePoint" />
          </mxGeometry>
        </mxCell>
        <mxCell id="2NV0xJlRkmsapn9ZG8iD-131" value="UDP报文" style="whiteSpace=wrap;html=1;fontColor=#000000;rounded=1;" vertex="1" parent="2NV0xJlRkmsapn9ZG8iD-127">
          <mxGeometry x="20" y="130" width="120" height="30" as="geometry" />
        </mxCell>
        <mxCell id="2NV0xJlRkmsapn9ZG8iD-132" value="放入" style="text;html=1;align=center;verticalAlign=middle;resizable=0;points=[];autosize=1;strokeColor=none;fillColor=none;fontColor=#3399FF;" vertex="1" parent="2NV0xJlRkmsapn9ZG8iD-127">
          <mxGeometry x="82.5" y="100" width="40" height="20" as="geometry" />
        </mxCell>
        <mxCell id="2NV0xJlRkmsapn9ZG8iD-136" value="以太网帧；&lt;br&gt;目的MAC：A_MAC；&lt;br&gt;源MAC:默认网关的入接口" style="whiteSpace=wrap;html=1;fontColor=#000000;rounded=1;" vertex="1" parent="2NV0xJlRkmsapn9ZG8iD-127">
          <mxGeometry x="15" y="330" width="150" height="60" as="geometry" />
        </mxCell>
        <mxCell id="2NV0xJlRkmsapn9ZG8iD-137" value="" style="edgeStyle=orthogonalEdgeStyle;rounded=0;orthogonalLoop=1;jettySize=auto;html=1;fontColor=#000000;" edge="1" parent="2NV0xJlRkmsapn9ZG8iD-127" target="2NV0xJlRkmsapn9ZG8iD-136">
          <mxGeometry relative="1" as="geometry">
            <mxPoint x="90" y="280" as="sourcePoint" />
          </mxGeometry>
        </mxCell>
        <mxCell id="2NV0xJlRkmsapn9ZG8iD-138" value="IP报文" style="rounded=1;whiteSpace=wrap;html=1;fontColor=#000000;" vertex="1" parent="2NV0xJlRkmsapn9ZG8iD-127">
          <mxGeometry x="20" y="210" width="130" height="70" as="geometry" />
        </mxCell>
        <mxCell id="2NV0xJlRkmsapn9ZG8iD-144" value="放入" style="text;html=1;align=center;verticalAlign=middle;resizable=0;points=[];autosize=1;strokeColor=none;fillColor=none;fontColor=#3399FF;" vertex="1" parent="2NV0xJlRkmsapn9ZG8iD-127">
          <mxGeometry x="82.5" y="170" width="40" height="20" as="geometry" />
        </mxCell>
        <mxCell id="2NV0xJlRkmsapn9ZG8iD-145" value="放入" style="text;html=1;align=center;verticalAlign=middle;resizable=0;points=[];autosize=1;strokeColor=none;fillColor=none;fontColor=#3399FF;" vertex="1" parent="2NV0xJlRkmsapn9ZG8iD-127">
          <mxGeometry x="92.5" y="290" width="40" height="20" as="geometry" />
        </mxCell>
        <mxCell id="2NV0xJlRkmsapn9ZG8iD-146" value="" style="endArrow=classic;html=1;rounded=0;fontColor=#000000;entryX=0.5;entryY=1;entryDx=0;entryDy=0;strokeColor=#FF0000;" edge="1" parent="1" target="2NV0xJlRkmsapn9ZG8iD-84">
          <mxGeometry width="50" height="50" relative="1" as="geometry">
            <mxPoint x="590" y="230" as="sourcePoint" />
            <mxPoint x="-10" y="300" as="targetPoint" />
            <Array as="points">
              <mxPoint x="650" y="230" />
              <mxPoint x="650" y="300" />
              <mxPoint x="28" y="300" />
            </Array>
          </mxGeometry>
        </mxCell>
        <mxCell id="2NV0xJlRkmsapn9ZG8iD-147" value="反向发回默认网关路由器" style="text;html=1;align=center;verticalAlign=middle;resizable=0;points=[];autosize=1;strokeColor=none;fillColor=none;fontColor=#000000;" vertex="1" parent="1">
          <mxGeometry x="125" y="300" width="150" height="20" as="geometry" />
        </mxCell>
        <mxCell id="2NV0xJlRkmsapn9ZG8iD-148" value="" style="endArrow=classic;html=1;rounded=0;fontColor=#000000;strokeColor=#FF0000;" edge="1" parent="1">
          <mxGeometry width="50" height="50" relative="1" as="geometry">
            <mxPoint y="220" as="sourcePoint" />
            <mxPoint x="-40" y="220" as="targetPoint" />
            <Array as="points">
              <mxPoint x="-20" y="220" />
            </Array>
          </mxGeometry>
        </mxCell>
        <mxCell id="2NV0xJlRkmsapn9ZG8iD-149" value="反向发回交换机" style="text;html=1;align=center;verticalAlign=middle;resizable=0;points=[];autosize=1;strokeColor=none;fillColor=none;fontColor=#000000;" vertex="1" parent="1">
          <mxGeometry x="-270" y="60" width="100" height="20" as="geometry" />
        </mxCell>
        <mxCell id="2NV0xJlRkmsapn9ZG8iD-150" value="" style="endArrow=classic;html=1;rounded=0;fontColor=#FF0000;strokeColor=#FF0000;entryX=0.5;entryY=1;entryDx=0;entryDy=0;" edge="1" parent="1">
          <mxGeometry width="50" height="50" relative="1" as="geometry">
            <mxPoint x="-65" y="180" as="sourcePoint" />
            <mxPoint x="5" y="110" as="targetPoint" />
          </mxGeometry>
        </mxCell>
        <mxCell id="2NV0xJlRkmsapn9ZG8iD-163" value="" style="swimlane;startSize=0;" vertex="1" collapsed="1" parent="1">
          <mxGeometry x="5" y="80" width="50" height="40" as="geometry">
            <mxRectangle x="5" y="80" width="220" height="490" as="alternateBounds" />
          </mxGeometry>
        </mxCell>
        <mxCell id="2NV0xJlRkmsapn9ZG8iD-164" value="" style="edgeStyle=orthogonalEdgeStyle;rounded=0;orthogonalLoop=1;jettySize=auto;html=1;fontColor=#000000;" edge="1" parent="2NV0xJlRkmsapn9ZG8iD-163" source="2NV0xJlRkmsapn9ZG8iD-165" target="2NV0xJlRkmsapn9ZG8iD-167">
          <mxGeometry relative="1" as="geometry" />
        </mxCell>
        <mxCell id="2NV0xJlRkmsapn9ZG8iD-165" value="以太网帧；&lt;br&gt;DHCP ACK报文" style="rounded=1;whiteSpace=wrap;html=1;fontColor=#000000;" vertex="1" parent="2NV0xJlRkmsapn9ZG8iD-163">
          <mxGeometry x="30" y="20" width="100" height="40" as="geometry" />
        </mxCell>
        <mxCell id="2NV0xJlRkmsapn9ZG8iD-166" value="" style="edgeStyle=orthogonalEdgeStyle;rounded=0;orthogonalLoop=1;jettySize=auto;html=1;fontColor=#000000;" edge="1" parent="2NV0xJlRkmsapn9ZG8iD-163" source="2NV0xJlRkmsapn9ZG8iD-167">
          <mxGeometry relative="1" as="geometry">
            <mxPoint x="80" y="190" as="targetPoint" />
          </mxGeometry>
        </mxCell>
        <mxCell id="2NV0xJlRkmsapn9ZG8iD-167" value="IP报文" style="whiteSpace=wrap;html=1;fontColor=#000000;rounded=1;" vertex="1" parent="2NV0xJlRkmsapn9ZG8iD-163">
          <mxGeometry x="20" y="110" width="120" height="30" as="geometry" />
        </mxCell>
        <mxCell id="2NV0xJlRkmsapn9ZG8iD-168" value="抽取IP报文" style="text;html=1;align=center;verticalAlign=middle;resizable=0;points=[];autosize=1;strokeColor=none;fillColor=none;fontColor=#3399FF;" vertex="1" parent="2NV0xJlRkmsapn9ZG8iD-163">
          <mxGeometry x="75" y="80" width="70" height="20" as="geometry" />
        </mxCell>
        <mxCell id="2NV0xJlRkmsapn9ZG8iD-169" value="抽取UDP报文" style="text;html=1;align=center;verticalAlign=middle;resizable=0;points=[];autosize=1;strokeColor=none;fillColor=none;fontColor=#3399FF;" vertex="1" parent="2NV0xJlRkmsapn9ZG8iD-163">
          <mxGeometry x="80" y="150" width="90" height="20" as="geometry" />
        </mxCell>
        <mxCell id="2NV0xJlRkmsapn9ZG8iD-178" value="" style="edgeStyle=orthogonalEdgeStyle;rounded=0;orthogonalLoop=1;jettySize=auto;html=1;fontColor=#FF0000;strokeColor=#000000;" edge="1" parent="2NV0xJlRkmsapn9ZG8iD-163" source="2NV0xJlRkmsapn9ZG8iD-170" target="2NV0xJlRkmsapn9ZG8iD-177">
          <mxGeometry relative="1" as="geometry" />
        </mxCell>
        <mxCell id="2NV0xJlRkmsapn9ZG8iD-170" value="DHCP报文" style="rounded=1;whiteSpace=wrap;html=1;fontColor=#000000;" vertex="1" parent="2NV0xJlRkmsapn9ZG8iD-163">
          <mxGeometry x="20" y="270" width="120" height="60" as="geometry" />
        </mxCell>
        <mxCell id="2NV0xJlRkmsapn9ZG8iD-176" value="" style="edgeStyle=orthogonalEdgeStyle;rounded=0;orthogonalLoop=1;jettySize=auto;html=1;fontColor=#FF0000;strokeColor=#000000;" edge="1" parent="2NV0xJlRkmsapn9ZG8iD-163" source="2NV0xJlRkmsapn9ZG8iD-172" target="2NV0xJlRkmsapn9ZG8iD-170">
          <mxGeometry relative="1" as="geometry" />
        </mxCell>
        <mxCell id="2NV0xJlRkmsapn9ZG8iD-172" value="UDP报文" style="whiteSpace=wrap;html=1;fontColor=#000000;rounded=1;" vertex="1" parent="2NV0xJlRkmsapn9ZG8iD-163">
          <mxGeometry x="20" y="190" width="120" height="40" as="geometry" />
        </mxCell>
        <mxCell id="2NV0xJlRkmsapn9ZG8iD-175" value="抽取DHCP ACK报文" style="text;html=1;align=center;verticalAlign=middle;resizable=0;points=[];autosize=1;strokeColor=none;fillColor=none;fontColor=#3399FF;" vertex="1" parent="2NV0xJlRkmsapn9ZG8iD-163">
          <mxGeometry x="90" y="240" width="120" height="20" as="geometry" />
        </mxCell>
        <mxCell id="2NV0xJlRkmsapn9ZG8iD-177" value="A机的DHCP客户记录：&lt;br&gt;A机IP；&lt;br&gt;DNS服务器IP；&lt;br&gt;在本机的IP转发表里安装默认网关IP" style="rounded=1;whiteSpace=wrap;html=1;fontColor=#000000;" vertex="1" parent="2NV0xJlRkmsapn9ZG8iD-163">
          <mxGeometry x="10" y="370" width="170" height="90" as="geometry" />
        </mxCell>
        <mxCell id="2NV0xJlRkmsapn9ZG8iD-180" value="" style="endArrow=classic;html=1;rounded=0;fontColor=#FF0000;strokeColor=#FF3333;entryX=1;entryY=1;entryDx=0;entryDy=0;" edge="1" parent="1" target="2NV0xJlRkmsapn9ZG8iD-1">
          <mxGeometry width="50" height="50" relative="1" as="geometry">
            <mxPoint x="5" y="80" as="sourcePoint" />
            <mxPoint x="55" y="40" as="targetPoint" />
          </mxGeometry>
        </mxCell>
        <mxCell id="2NV0xJlRkmsapn9ZG8iD-181" value="" style="endArrow=classic;html=1;rounded=0;fontColor=#FF0000;strokeColor=#3399FF;" edge="1" parent="1">
          <mxGeometry width="50" height="50" relative="1" as="geometry">
            <mxPoint x="-70" y="-46.25" as="sourcePoint" />
            <mxPoint x="-20" y="-96.25" as="targetPoint" />
          </mxGeometry>
        </mxCell>
        <mxCell id="2NV0xJlRkmsapn9ZG8iD-183" value="" style="swimlane;startSize=0;" vertex="1" collapsed="1" parent="1">
          <mxGeometry x="-15" y="-120" width="50" height="40" as="geometry">
            <mxRectangle x="-15" y="-120" width="210" height="520" as="alternateBounds" />
          </mxGeometry>
        </mxCell>
        <mxCell id="2NV0xJlRkmsapn9ZG8iD-184" value="" style="edgeStyle=orthogonalEdgeStyle;rounded=0;orthogonalLoop=1;jettySize=auto;html=1;fontColor=#000000;" edge="1" parent="2NV0xJlRkmsapn9ZG8iD-183" source="2NV0xJlRkmsapn9ZG8iD-185">
          <mxGeometry relative="1" as="geometry">
            <mxPoint x="80" y="110" as="targetPoint" />
          </mxGeometry>
        </mxCell>
        <mxCell id="2NV0xJlRkmsapn9ZG8iD-185" value="A机键入&lt;br&gt;www.google.com" style="rounded=1;whiteSpace=wrap;html=1;fontColor=#000000;" vertex="1" parent="2NV0xJlRkmsapn9ZG8iD-183">
          <mxGeometry x="30" y="20" width="100" height="40" as="geometry" />
        </mxCell>
        <mxCell id="2NV0xJlRkmsapn9ZG8iD-188" value="域名放入DNS查讯报文" style="text;html=1;align=center;verticalAlign=middle;resizable=0;points=[];autosize=1;strokeColor=none;fillColor=none;fontColor=#3399FF;" vertex="1" parent="2NV0xJlRkmsapn9ZG8iD-183">
          <mxGeometry x="80" y="80" width="140" height="20" as="geometry" />
        </mxCell>
        <mxCell id="2NV0xJlRkmsapn9ZG8iD-198" value="" style="edgeStyle=orthogonalEdgeStyle;rounded=0;orthogonalLoop=1;jettySize=auto;html=1;fontColor=#FF0000;strokeColor=#000000;" edge="1" parent="2NV0xJlRkmsapn9ZG8iD-183" source="2NV0xJlRkmsapn9ZG8iD-196" target="2NV0xJlRkmsapn9ZG8iD-197">
          <mxGeometry relative="1" as="geometry" />
        </mxCell>
        <mxCell id="2NV0xJlRkmsapn9ZG8iD-196" value="DNS查询报文" style="rounded=1;whiteSpace=wrap;html=1;fontColor=#000000;" vertex="1" parent="2NV0xJlRkmsapn9ZG8iD-183">
          <mxGeometry x="30" y="110" width="100" height="40" as="geometry" />
        </mxCell>
        <mxCell id="2NV0xJlRkmsapn9ZG8iD-200" value="" style="edgeStyle=orthogonalEdgeStyle;rounded=0;orthogonalLoop=1;jettySize=auto;html=1;fontColor=#FF0000;strokeColor=#000000;" edge="1" parent="2NV0xJlRkmsapn9ZG8iD-183" source="2NV0xJlRkmsapn9ZG8iD-197" target="2NV0xJlRkmsapn9ZG8iD-199">
          <mxGeometry relative="1" as="geometry" />
        </mxCell>
        <mxCell id="2NV0xJlRkmsapn9ZG8iD-197" value="目的port：53；&lt;br&gt;UDP报文" style="whiteSpace=wrap;html=1;fontColor=#000000;rounded=1;" vertex="1" parent="2NV0xJlRkmsapn9ZG8iD-183">
          <mxGeometry x="20" y="220" width="120" height="60" as="geometry" />
        </mxCell>
        <mxCell id="2NV0xJlRkmsapn9ZG8iD-202" value="" style="edgeStyle=orthogonalEdgeStyle;rounded=0;orthogonalLoop=1;jettySize=auto;html=1;fontColor=#FF0000;strokeColor=#000000;" edge="1" parent="2NV0xJlRkmsapn9ZG8iD-183" source="2NV0xJlRkmsapn9ZG8iD-199" target="2NV0xJlRkmsapn9ZG8iD-201">
          <mxGeometry relative="1" as="geometry" />
        </mxCell>
        <mxCell id="2NV0xJlRkmsapn9ZG8iD-199" value="目的IP：DNS服务器IP；&lt;br&gt;源IP：A机IP；&lt;br&gt;IP数据包" style="whiteSpace=wrap;html=1;fontColor=#000000;rounded=1;" vertex="1" parent="2NV0xJlRkmsapn9ZG8iD-183">
          <mxGeometry x="5" y="320" width="150" height="60" as="geometry" />
        </mxCell>
        <mxCell id="2NV0xJlRkmsapn9ZG8iD-201" value="此时要放入以太网帧。但是，A机不知道默认网关的MAC地址。要发生ARP查询" style="shape=process;whiteSpace=wrap;html=1;backgroundOutline=1;fontColor=#000000;rounded=1;" vertex="1" parent="2NV0xJlRkmsapn9ZG8iD-183">
          <mxGeometry y="410" width="160" height="80" as="geometry" />
        </mxCell>
        <mxCell id="2NV0xJlRkmsapn9ZG8iD-204" value="" style="swimlane;startSize=0;" vertex="1" collapsed="1" parent="1">
          <mxGeometry x="-190" y="-150" width="50" height="40" as="geometry">
            <mxRectangle x="90" y="-200" width="165" height="183.75" as="alternateBounds" />
          </mxGeometry>
        </mxCell>
        <mxCell id="2NV0xJlRkmsapn9ZG8iD-205" value="" style="edgeStyle=orthogonalEdgeStyle;rounded=0;orthogonalLoop=1;jettySize=auto;html=1;fontColor=#000000;" edge="1" parent="2NV0xJlRkmsapn9ZG8iD-204" source="2NV0xJlRkmsapn9ZG8iD-206">
          <mxGeometry relative="1" as="geometry">
            <mxPoint x="80" y="110" as="targetPoint" />
          </mxGeometry>
        </mxCell>
        <mxCell id="2NV0xJlRkmsapn9ZG8iD-206" value="A机生成ARP查询报文；&lt;br&gt;目的IP：默认网关IP" style="rounded=1;whiteSpace=wrap;html=1;fontColor=#000000;" vertex="1" parent="2NV0xJlRkmsapn9ZG8iD-204">
          <mxGeometry x="10" y="10" width="140" height="40" as="geometry" />
        </mxCell>
        <mxCell id="2NV0xJlRkmsapn9ZG8iD-207" value="放入" style="text;html=1;align=center;verticalAlign=middle;resizable=0;points=[];autosize=1;strokeColor=none;fillColor=none;fontColor=#3399FF;" vertex="1" parent="2NV0xJlRkmsapn9ZG8iD-204">
          <mxGeometry x="80" y="70" width="40" height="20" as="geometry" />
        </mxCell>
        <mxCell id="2NV0xJlRkmsapn9ZG8iD-209" value="以太网帧；&lt;br&gt;目的MAC:FF:FF:FF:FF:FF:FF" style="rounded=1;whiteSpace=wrap;html=1;fontColor=#000000;" vertex="1" parent="2NV0xJlRkmsapn9ZG8iD-204">
          <mxGeometry x="5" y="110" width="150" height="50" as="geometry" />
        </mxCell>
        <mxCell id="2NV0xJlRkmsapn9ZG8iD-220" value="ARP查询" style="text;html=1;align=center;verticalAlign=middle;resizable=0;points=[];autosize=1;strokeColor=none;fillColor=none;fontColor=#FF0000;" vertex="1" parent="1">
          <mxGeometry x="-160" y="-90" width="60" height="20" as="geometry" />
        </mxCell>
        <mxCell id="2NV0xJlRkmsapn9ZG8iD-221" value="" style="endArrow=classic;html=1;rounded=0;fontColor=#FF0000;strokeColor=#3399FF;exitX=1.046;exitY=0.636;exitDx=0;exitDy=0;exitPerimeter=0;" edge="1" parent="1" source="2NV0xJlRkmsapn9ZG8iD-73">
          <mxGeometry width="50" height="50" relative="1" as="geometry">
            <mxPoint x="-40" y="290" as="sourcePoint" />
            <mxPoint y="244" as="targetPoint" />
          </mxGeometry>
        </mxCell>
        <mxCell id="2NV0xJlRkmsapn9ZG8iD-223" value="" style="shape=flexArrow;endArrow=classic;html=1;rounded=0;fontColor=#FF0000;strokeColor=#3399FF;" edge="1" parent="1">
          <mxGeometry width="50" height="50" relative="1" as="geometry">
            <mxPoint y="260" as="sourcePoint" />
            <mxPoint y="430" as="targetPoint" />
          </mxGeometry>
        </mxCell>
        <mxCell id="2NV0xJlRkmsapn9ZG8iD-224" value="" style="swimlane;startSize=0;" vertex="1" collapsed="1" parent="1">
          <mxGeometry x="-10" y="440" width="50" height="40" as="geometry">
            <mxRectangle x="-10" y="440" width="165" height="270" as="alternateBounds" />
          </mxGeometry>
        </mxCell>
        <mxCell id="2NV0xJlRkmsapn9ZG8iD-230" value="" style="edgeStyle=orthogonalEdgeStyle;rounded=0;orthogonalLoop=1;jettySize=auto;html=1;fontColor=#FF0000;strokeColor=#000000;" edge="1" parent="2NV0xJlRkmsapn9ZG8iD-224" source="2NV0xJlRkmsapn9ZG8iD-226" target="2NV0xJlRkmsapn9ZG8iD-228">
          <mxGeometry relative="1" as="geometry" />
        </mxCell>
        <mxCell id="2NV0xJlRkmsapn9ZG8iD-226" value="ARP查询报文到达默认网关；发现ARP报文里目的IP匹配自己的接口IP" style="rounded=1;whiteSpace=wrap;html=1;fontColor=#000000;" vertex="1" parent="2NV0xJlRkmsapn9ZG8iD-224">
          <mxGeometry x="10" y="10" width="150" height="50" as="geometry" />
        </mxCell>
        <mxCell id="2NV0xJlRkmsapn9ZG8iD-232" value="" style="edgeStyle=orthogonalEdgeStyle;rounded=0;orthogonalLoop=1;jettySize=auto;html=1;fontColor=#FF0000;strokeColor=#000000;" edge="1" parent="2NV0xJlRkmsapn9ZG8iD-224" source="2NV0xJlRkmsapn9ZG8iD-228" target="2NV0xJlRkmsapn9ZG8iD-231">
          <mxGeometry relative="1" as="geometry" />
        </mxCell>
        <mxCell id="2NV0xJlRkmsapn9ZG8iD-228" value="准备ARP回答；&lt;br&gt;源MAC:网关MAC；&lt;br&gt;源IP：网关IP；&lt;br&gt;ARP回答报文" style="rounded=1;whiteSpace=wrap;html=1;fontColor=#000000;" vertex="1" parent="2NV0xJlRkmsapn9ZG8iD-224">
          <mxGeometry x="10" y="100" width="150" height="60" as="geometry" />
        </mxCell>
        <mxCell id="2NV0xJlRkmsapn9ZG8iD-231" value="以太网帧；&lt;br&gt;目的MAC：A机MAC" style="whiteSpace=wrap;html=1;fontColor=#000000;rounded=1;" vertex="1" parent="2NV0xJlRkmsapn9ZG8iD-224">
          <mxGeometry x="25" y="195" width="120" height="60" as="geometry" />
        </mxCell>
        <mxCell id="2NV0xJlRkmsapn9ZG8iD-233" value="放入" style="text;html=1;align=center;verticalAlign=middle;resizable=0;points=[];autosize=1;strokeColor=none;fillColor=none;fontColor=#FF0000;" vertex="1" parent="2NV0xJlRkmsapn9ZG8iD-224">
          <mxGeometry x="80" y="160" width="40" height="20" as="geometry" />
        </mxCell>
        <mxCell id="2NV0xJlRkmsapn9ZG8iD-234" value="生成" style="text;html=1;align=center;verticalAlign=middle;resizable=0;points=[];autosize=1;strokeColor=none;fillColor=none;fontColor=#FF0000;" vertex="1" parent="2NV0xJlRkmsapn9ZG8iD-224">
          <mxGeometry x="80" y="60" width="40" height="20" as="geometry" />
        </mxCell>
        <mxCell id="2NV0xJlRkmsapn9ZG8iD-236" value="" style="endArrow=classic;html=1;rounded=0;fontColor=#FF0000;strokeColor=#3399FF;exitX=0;exitY=0.25;exitDx=0;exitDy=0;entryX=0.929;entryY=1.02;entryDx=0;entryDy=0;entryPerimeter=0;" edge="1" parent="1" source="2NV0xJlRkmsapn9ZG8iD-224" target="2NV0xJlRkmsapn9ZG8iD-73">
          <mxGeometry width="50" height="50" relative="1" as="geometry">
            <mxPoint x="-30" y="340" as="sourcePoint" />
            <mxPoint x="-40" y="400" as="targetPoint" />
          </mxGeometry>
        </mxCell>
        <mxCell id="2NV0xJlRkmsapn9ZG8iD-237" value="从网关发回交换机" style="text;html=1;align=center;verticalAlign=middle;resizable=0;points=[];autosize=1;strokeColor=none;fillColor=none;fontColor=#FF0000;" vertex="1" parent="1">
          <mxGeometry x="-125" y="420" width="110" height="20" as="geometry" />
        </mxCell>
        <mxCell id="2NV0xJlRkmsapn9ZG8iD-240" value="" style="endArrow=classic;html=1;rounded=0;fontColor=#FF0000;strokeColor=#3399FF;entryX=0.75;entryY=1;entryDx=0;entryDy=0;" edge="1" parent="1" target="2NV0xJlRkmsapn9ZG8iD-204">
          <mxGeometry width="50" height="50" relative="1" as="geometry">
            <mxPoint x="-140" y="-46.25" as="sourcePoint" />
            <mxPoint x="-90" y="-96.25" as="targetPoint" />
          </mxGeometry>
        </mxCell>
        <mxCell id="2NV0xJlRkmsapn9ZG8iD-241" value="" style="endArrow=classic;html=1;rounded=0;fontColor=#FF0000;strokeColor=#3399FF;entryX=0.129;entryY=-0.044;entryDx=0;entryDy=0;entryPerimeter=0;exitX=0.25;exitY=1;exitDx=0;exitDy=0;" edge="1" parent="1" source="2NV0xJlRkmsapn9ZG8iD-204" target="2NV0xJlRkmsapn9ZG8iD-73">
          <mxGeometry width="50" height="50" relative="1" as="geometry">
            <mxPoint x="-240" y="-40" as="sourcePoint" />
            <mxPoint x="-190" y="-90" as="targetPoint" />
          </mxGeometry>
        </mxCell>
        <mxCell id="2NV0xJlRkmsapn9ZG8iD-243" value="" style="endArrow=classic;html=1;rounded=0;fontColor=#FF0000;strokeColor=#3399FF;entryX=0.25;entryY=1;entryDx=0;entryDy=0;" edge="1" parent="1" target="2NV0xJlRkmsapn9ZG8iD-183">
          <mxGeometry width="50" height="50" relative="1" as="geometry">
            <mxPoint x="-80" y="180" as="sourcePoint" />
            <mxPoint x="-30" y="130" as="targetPoint" />
          </mxGeometry>
        </mxCell>
        <mxCell id="2NV0xJlRkmsapn9ZG8iD-244" value="ARP回答报文发回A机，抽取ARP回答，拿到默认网关的MAC" style="text;html=1;align=center;verticalAlign=middle;resizable=0;points=[];autosize=1;strokeColor=none;fillColor=none;fontColor=#FF0000;" vertex="1" parent="1">
          <mxGeometry x="-65" y="-20" width="340" height="20" as="geometry" />
        </mxCell>
        <mxCell id="2NV0xJlRkmsapn9ZG8iD-245" value="" style="endArrow=classic;html=1;rounded=0;fontColor=#FF0000;strokeColor=#3399FF;" edge="1" parent="1">
          <mxGeometry width="50" height="50" relative="1" as="geometry">
            <mxPoint x="40" y="-120" as="sourcePoint" />
            <mxPoint x="90" y="-170" as="targetPoint" />
          </mxGeometry>
        </mxCell>
        <mxCell id="2NV0xJlRkmsapn9ZG8iD-246" value="" style="swimlane;startSize=0;" vertex="1" collapsed="1" parent="1">
          <mxGeometry x="90" y="-200" width="50" height="40" as="geometry">
            <mxRectangle x="90" y="-200" width="270" height="750" as="alternateBounds" />
          </mxGeometry>
        </mxCell>
        <mxCell id="2NV0xJlRkmsapn9ZG8iD-247" value="" style="edgeStyle=orthogonalEdgeStyle;rounded=0;orthogonalLoop=1;jettySize=auto;html=1;fontColor=#000000;" edge="1" parent="2NV0xJlRkmsapn9ZG8iD-246" source="2NV0xJlRkmsapn9ZG8iD-248">
          <mxGeometry relative="1" as="geometry">
            <mxPoint x="80" y="110" as="targetPoint" />
          </mxGeometry>
        </mxCell>
        <mxCell id="2NV0xJlRkmsapn9ZG8iD-248" value="A机有了默认网关MAC，终于可以把包含DNS查询报文的IP报文组装成以太网帧" style="rounded=1;whiteSpace=wrap;html=1;fontColor=#000000;" vertex="1" parent="2NV0xJlRkmsapn9ZG8iD-246">
          <mxGeometry x="30" y="20" width="160" height="50" as="geometry" />
        </mxCell>
        <mxCell id="2NV0xJlRkmsapn9ZG8iD-258" value="" style="edgeStyle=orthogonalEdgeStyle;rounded=0;orthogonalLoop=1;jettySize=auto;html=1;fontColor=#FF0000;strokeColor=#3399FF;" edge="1" parent="2NV0xJlRkmsapn9ZG8iD-246" source="2NV0xJlRkmsapn9ZG8iD-251">
          <mxGeometry relative="1" as="geometry">
            <mxPoint x="80" y="180" as="targetPoint" />
          </mxGeometry>
        </mxCell>
        <mxCell id="2NV0xJlRkmsapn9ZG8iD-251" value="以太网帧" style="rounded=1;whiteSpace=wrap;html=1;fontColor=#000000;" vertex="1" parent="2NV0xJlRkmsapn9ZG8iD-246">
          <mxGeometry x="30" y="110" width="100" height="40" as="geometry" />
        </mxCell>
        <mxCell id="2NV0xJlRkmsapn9ZG8iD-264" value="" style="edgeStyle=orthogonalEdgeStyle;rounded=0;orthogonalLoop=1;jettySize=auto;html=1;fontColor=#FF0000;strokeColor=#3399FF;" edge="1" parent="2NV0xJlRkmsapn9ZG8iD-246" source="2NV0xJlRkmsapn9ZG8iD-256" target="2NV0xJlRkmsapn9ZG8iD-263">
          <mxGeometry relative="1" as="geometry" />
        </mxCell>
        <mxCell id="2NV0xJlRkmsapn9ZG8iD-256" value="路由器抽取以太网帧；&lt;br&gt;拿到IP报文；&lt;br&gt;发现目的IP是DNS服务器的IP；&lt;br&gt;根据此IP，查询转发表；&lt;br&gt;转发到某路由器L" style="shape=process;whiteSpace=wrap;html=1;backgroundOutline=1;fontColor=#000000;rounded=1;" vertex="1" parent="2NV0xJlRkmsapn9ZG8iD-246">
          <mxGeometry x="10" y="350" width="190" height="130" as="geometry" />
        </mxCell>
        <mxCell id="2NV0xJlRkmsapn9ZG8iD-261" value="" style="edgeStyle=orthogonalEdgeStyle;rounded=0;orthogonalLoop=1;jettySize=auto;html=1;fontColor=#FF0000;strokeColor=#3399FF;" edge="1" parent="2NV0xJlRkmsapn9ZG8iD-246" source="2NV0xJlRkmsapn9ZG8iD-259" target="2NV0xJlRkmsapn9ZG8iD-260">
          <mxGeometry relative="1" as="geometry" />
        </mxCell>
        <mxCell id="2NV0xJlRkmsapn9ZG8iD-259" value="发去交换机" style="rounded=0;whiteSpace=wrap;html=1;fontColor=#FF0000;" vertex="1" parent="2NV0xJlRkmsapn9ZG8iD-246">
          <mxGeometry x="20" y="180" width="120" height="60" as="geometry" />
        </mxCell>
        <mxCell id="2NV0xJlRkmsapn9ZG8iD-262" value="" style="edgeStyle=orthogonalEdgeStyle;rounded=0;orthogonalLoop=1;jettySize=auto;html=1;fontColor=#FF0000;strokeColor=#3399FF;" edge="1" parent="2NV0xJlRkmsapn9ZG8iD-246" source="2NV0xJlRkmsapn9ZG8iD-260" target="2NV0xJlRkmsapn9ZG8iD-256">
          <mxGeometry relative="1" as="geometry" />
        </mxCell>
        <mxCell id="2NV0xJlRkmsapn9ZG8iD-260" value="默认网关路由器" style="ellipse;whiteSpace=wrap;html=1;rounded=0;" vertex="1" parent="2NV0xJlRkmsapn9ZG8iD-246">
          <mxGeometry x="52.5" y="270" width="55" height="55" as="geometry" />
        </mxCell>
        <mxCell id="2NV0xJlRkmsapn9ZG8iD-266" value="" style="edgeStyle=orthogonalEdgeStyle;rounded=0;orthogonalLoop=1;jettySize=auto;html=1;fontColor=#FF0000;strokeColor=#3399FF;" edge="1" parent="2NV0xJlRkmsapn9ZG8iD-246" source="2NV0xJlRkmsapn9ZG8iD-263" target="2NV0xJlRkmsapn9ZG8iD-265">
          <mxGeometry relative="1" as="geometry" />
        </mxCell>
        <mxCell id="2NV0xJlRkmsapn9ZG8iD-263" value="某路由器L" style="ellipse;whiteSpace=wrap;html=1;fontColor=#000000;rounded=1;" vertex="1" parent="2NV0xJlRkmsapn9ZG8iD-246">
          <mxGeometry x="75" y="510" width="60" height="60" as="geometry" />
        </mxCell>
        <mxCell id="2NV0xJlRkmsapn9ZG8iD-265" value="路由器拿到IP报文；&lt;br&gt;检查目的IP是DNS服务器的IP；&lt;br&gt;根据此IP，查询转发表；&lt;br&gt;转发到DNS服务器" style="shape=process;whiteSpace=wrap;html=1;backgroundOutline=1;fontColor=#000000;rounded=1;" vertex="1" parent="2NV0xJlRkmsapn9ZG8iD-246">
          <mxGeometry x="10" y="590" width="190" height="130" as="geometry" />
        </mxCell>
        <mxCell id="2NV0xJlRkmsapn9ZG8iD-268" value="" style="swimlane;startSize=0;" vertex="1" collapsed="1" parent="2NV0xJlRkmsapn9ZG8iD-246">
          <mxGeometry x="200" y="610" width="50" height="40" as="geometry">
            <mxRectangle x="200" y="610" width="370" height="230" as="alternateBounds" />
          </mxGeometry>
        </mxCell>
        <mxCell id="2NV0xJlRkmsapn9ZG8iD-280" value="这个转发表是利用ISP选择的域内协议（RIP,OSPF,IS-IS）和域间协议BGP填写的" style="text;html=1;align=center;verticalAlign=middle;resizable=0;points=[];autosize=1;strokeColor=none;fillColor=none;fontColor=#FF0000;" vertex="1" parent="2NV0xJlRkmsapn9ZG8iD-268">
          <mxGeometry x="-70" y="120" width="440" height="20" as="geometry" />
        </mxCell>
        <mxCell id="2NV0xJlRkmsapn9ZG8iD-281" value="" style="endArrow=classic;html=1;rounded=0;fontColor=#FF0000;strokeColor=#3399FF;" edge="1" parent="1">
          <mxGeometry width="50" height="50" relative="1" as="geometry">
            <mxPoint x="140" y="-200" as="sourcePoint" />
            <mxPoint x="180" y="-240" as="targetPoint" />
          </mxGeometry>
        </mxCell>
        <mxCell id="2NV0xJlRkmsapn9ZG8iD-293" value="" style="edgeStyle=orthogonalEdgeStyle;rounded=0;orthogonalLoop=1;jettySize=auto;html=1;fontColor=#FF0000;strokeColor=#3399FF;entryX=-0.012;entryY=0.072;entryDx=0;entryDy=0;entryPerimeter=0;" edge="1" parent="1" source="2NV0xJlRkmsapn9ZG8iD-282" target="2NV0xJlRkmsapn9ZG8iD-284">
          <mxGeometry relative="1" as="geometry">
            <mxPoint x="320" y="-255" as="targetPoint" />
          </mxGeometry>
        </mxCell>
        <mxCell id="2NV0xJlRkmsapn9ZG8iD-282" value="DNS服务器" style="rounded=0;whiteSpace=wrap;html=1;fontColor=#FF0000;" vertex="1" parent="1">
          <mxGeometry x="180" y="-275" width="60" height="50" as="geometry" />
        </mxCell>
        <mxCell id="2NV0xJlRkmsapn9ZG8iD-284" value="" style="swimlane;startSize=0;" vertex="1" collapsed="1" parent="1">
          <mxGeometry x="320" y="-260" width="50" height="40" as="geometry">
            <mxRectangle x="287.5" y="-719" width="165" height="779" as="alternateBounds" />
          </mxGeometry>
        </mxCell>
        <mxCell id="2NV0xJlRkmsapn9ZG8iD-285" value="" style="edgeStyle=orthogonalEdgeStyle;rounded=0;orthogonalLoop=1;jettySize=auto;html=1;fontColor=#FF0000;strokeColor=#000000;" edge="1" parent="2NV0xJlRkmsapn9ZG8iD-284" source="2NV0xJlRkmsapn9ZG8iD-286" target="2NV0xJlRkmsapn9ZG8iD-288">
          <mxGeometry relative="1" as="geometry" />
        </mxCell>
        <mxCell id="2NV0xJlRkmsapn9ZG8iD-286" value="抽取DNS&lt;span style=&quot;white-space: pre&quot;&gt;	&lt;/span&gt;查询报文；&lt;br&gt;准备DNS回答报文" style="rounded=1;whiteSpace=wrap;html=1;fontColor=#000000;" vertex="1" parent="2NV0xJlRkmsapn9ZG8iD-284">
          <mxGeometry x="10" y="10" width="150" height="50" as="geometry" />
        </mxCell>
        <mxCell id="2NV0xJlRkmsapn9ZG8iD-287" value="" style="edgeStyle=orthogonalEdgeStyle;rounded=0;orthogonalLoop=1;jettySize=auto;html=1;fontColor=#FF0000;strokeColor=#000000;" edge="1" parent="2NV0xJlRkmsapn9ZG8iD-284" source="2NV0xJlRkmsapn9ZG8iD-288" target="2NV0xJlRkmsapn9ZG8iD-289">
          <mxGeometry relative="1" as="geometry" />
        </mxCell>
        <mxCell id="2NV0xJlRkmsapn9ZG8iD-288" value="UDP报文" style="rounded=1;whiteSpace=wrap;html=1;fontColor=#000000;" vertex="1" parent="2NV0xJlRkmsapn9ZG8iD-284">
          <mxGeometry x="20" y="105" width="130" height="30" as="geometry" />
        </mxCell>
        <mxCell id="2NV0xJlRkmsapn9ZG8iD-297" value="" style="edgeStyle=orthogonalEdgeStyle;rounded=0;orthogonalLoop=1;jettySize=auto;html=1;fontColor=#3399FF;strokeColor=#3399FF;" edge="1" parent="2NV0xJlRkmsapn9ZG8iD-284" source="2NV0xJlRkmsapn9ZG8iD-289" target="2NV0xJlRkmsapn9ZG8iD-296">
          <mxGeometry relative="1" as="geometry" />
        </mxCell>
        <mxCell id="2NV0xJlRkmsapn9ZG8iD-289" value="IP报文" style="whiteSpace=wrap;html=1;fontColor=#000000;rounded=1;" vertex="1" parent="2NV0xJlRkmsapn9ZG8iD-284">
          <mxGeometry x="32.5" y="180" width="105" height="40" as="geometry" />
        </mxCell>
        <mxCell id="2NV0xJlRkmsapn9ZG8iD-290" value="放入" style="text;html=1;align=center;verticalAlign=middle;resizable=0;points=[];autosize=1;strokeColor=none;fillColor=none;fontColor=#FF0000;" vertex="1" parent="2NV0xJlRkmsapn9ZG8iD-284">
          <mxGeometry x="80" y="145" width="40" height="20" as="geometry" />
        </mxCell>
        <mxCell id="2NV0xJlRkmsapn9ZG8iD-291" value="放入" style="text;html=1;align=center;verticalAlign=middle;resizable=0;points=[];autosize=1;strokeColor=none;fillColor=none;fontColor=#FF0000;" vertex="1" parent="2NV0xJlRkmsapn9ZG8iD-284">
          <mxGeometry x="80" y="75" width="40" height="20" as="geometry" />
        </mxCell>
        <mxCell id="2NV0xJlRkmsapn9ZG8iD-300" value="" style="edgeStyle=orthogonalEdgeStyle;rounded=0;orthogonalLoop=1;jettySize=auto;html=1;fontColor=#3399FF;strokeColor=#3399FF;" edge="1" parent="2NV0xJlRkmsapn9ZG8iD-284" source="2NV0xJlRkmsapn9ZG8iD-296" target="2NV0xJlRkmsapn9ZG8iD-299">
          <mxGeometry relative="1" as="geometry" />
        </mxCell>
        <mxCell id="2NV0xJlRkmsapn9ZG8iD-296" value="某路由器L" style="ellipse;whiteSpace=wrap;html=1;fontColor=#000000;rounded=1;" vertex="1" parent="2NV0xJlRkmsapn9ZG8iD-284">
          <mxGeometry x="55" y="259" width="60" height="60" as="geometry" />
        </mxCell>
        <mxCell id="2NV0xJlRkmsapn9ZG8iD-298" value="反向发回" style="text;html=1;align=center;verticalAlign=middle;resizable=0;points=[];autosize=1;strokeColor=none;fillColor=none;fontColor=#3399FF;" vertex="1" parent="2NV0xJlRkmsapn9ZG8iD-284">
          <mxGeometry x="80" y="229" width="60" height="20" as="geometry" />
        </mxCell>
        <mxCell id="2NV0xJlRkmsapn9ZG8iD-302" value="" style="edgeStyle=orthogonalEdgeStyle;rounded=0;orthogonalLoop=1;jettySize=auto;html=1;fontColor=#3399FF;strokeColor=#3399FF;" edge="1" parent="2NV0xJlRkmsapn9ZG8iD-284" source="2NV0xJlRkmsapn9ZG8iD-299" target="2NV0xJlRkmsapn9ZG8iD-301">
          <mxGeometry relative="1" as="geometry" />
        </mxCell>
        <mxCell id="2NV0xJlRkmsapn9ZG8iD-299" value="默认网关路由器" style="ellipse;whiteSpace=wrap;html=1;fontColor=#000000;rounded=1;" vertex="1" parent="2NV0xJlRkmsapn9ZG8iD-284">
          <mxGeometry x="55" y="339" width="60" height="60" as="geometry" />
        </mxCell>
        <mxCell id="2NV0xJlRkmsapn9ZG8iD-305" value="" style="edgeStyle=orthogonalEdgeStyle;rounded=0;orthogonalLoop=1;jettySize=auto;html=1;fontColor=#3399FF;strokeColor=#3399FF;" edge="1" parent="2NV0xJlRkmsapn9ZG8iD-284" source="2NV0xJlRkmsapn9ZG8iD-301" target="2NV0xJlRkmsapn9ZG8iD-304">
          <mxGeometry relative="1" as="geometry" />
        </mxCell>
        <mxCell id="2NV0xJlRkmsapn9ZG8iD-301" value="交换机" style="whiteSpace=wrap;html=1;fontStyle=1;startSize=0;" vertex="1" parent="2NV0xJlRkmsapn9ZG8iD-284">
          <mxGeometry x="25" y="419" width="120" height="31" as="geometry" />
        </mxCell>
        <mxCell id="2NV0xJlRkmsapn9ZG8iD-307" value="" style="edgeStyle=orthogonalEdgeStyle;rounded=0;orthogonalLoop=1;jettySize=auto;html=1;fontColor=#3399FF;strokeColor=#3399FF;" edge="1" parent="2NV0xJlRkmsapn9ZG8iD-284" source="2NV0xJlRkmsapn9ZG8iD-304">
          <mxGeometry relative="1" as="geometry">
            <mxPoint x="85" y="559" as="targetPoint" />
          </mxGeometry>
        </mxCell>
        <mxCell id="2NV0xJlRkmsapn9ZG8iD-304" value="A机" style="rounded=0;whiteSpace=wrap;html=1;" vertex="1" parent="2NV0xJlRkmsapn9ZG8iD-284">
          <mxGeometry x="52.5" y="479" width="65" height="41" as="geometry" />
        </mxCell>
        <mxCell id="2NV0xJlRkmsapn9ZG8iD-308" value="&lt;span style=&quot;color: rgb(0 , 0 , 0)&quot;&gt;抽取DNS回答报文；&lt;br&gt;拿到域名www.google.com的IP；&lt;/span&gt;&lt;br style=&quot;color: rgb(0 , 0 , 0)&quot;&gt;&lt;span style=&quot;color: rgb(0 , 0 , 0)&quot;&gt;准备发起HTTP-TCP&lt;/span&gt;" style="rounded=1;whiteSpace=wrap;html=1;fontColor=#3399FF;" vertex="1" parent="2NV0xJlRkmsapn9ZG8iD-284">
          <mxGeometry x="20" y="559" width="140" height="81" as="geometry" />
        </mxCell>
        <mxCell id="2NV0xJlRkmsapn9ZG8iD-309" value="" style="endArrow=classic;html=1;rounded=0;fontColor=#3399FF;strokeColor=#00FF00;" edge="1" parent="1">
          <mxGeometry width="50" height="50" relative="1" as="geometry">
            <mxPoint x="370" y="-250" as="sourcePoint" />
            <mxPoint x="420" y="-250" as="targetPoint" />
          </mxGeometry>
        </mxCell>
        <mxCell id="2NV0xJlRkmsapn9ZG8iD-363" value="" style="edgeStyle=orthogonalEdgeStyle;rounded=0;orthogonalLoop=1;jettySize=auto;html=1;fontColor=#3399FF;strokeColor=#00FF00;entryX=-0.019;entryY=0.043;entryDx=0;entryDy=0;entryPerimeter=0;" edge="1" parent="1" source="2NV0xJlRkmsapn9ZG8iD-310" target="2NV0xJlRkmsapn9ZG8iD-339">
          <mxGeometry relative="1" as="geometry">
            <mxPoint x="550" y="-250" as="targetPoint" />
          </mxGeometry>
        </mxCell>
        <mxCell id="2NV0xJlRkmsapn9ZG8iD-310" value="" style="swimlane;startSize=0;" vertex="1" collapsed="1" parent="1">
          <mxGeometry x="420" y="-270" width="50" height="40" as="geometry">
            <mxRectangle x="420" y="-330" width="165" height="500" as="alternateBounds" />
          </mxGeometry>
        </mxCell>
        <mxCell id="2NV0xJlRkmsapn9ZG8iD-330" value="" style="edgeStyle=orthogonalEdgeStyle;rounded=0;orthogonalLoop=1;jettySize=auto;html=1;fontColor=#3399FF;strokeColor=#00FF00;" edge="1" parent="2NV0xJlRkmsapn9ZG8iD-310" source="2NV0xJlRkmsapn9ZG8iD-312" target="2NV0xJlRkmsapn9ZG8iD-329">
          <mxGeometry relative="1" as="geometry" />
        </mxCell>
        <mxCell id="2NV0xJlRkmsapn9ZG8iD-312" value="A机生成TCP套接字；&lt;br&gt;准备三次握手；" style="rounded=1;whiteSpace=wrap;html=1;fontColor=#000000;" vertex="1" parent="2NV0xJlRkmsapn9ZG8iD-310">
          <mxGeometry x="10" y="10" width="150" height="50" as="geometry" />
        </mxCell>
        <mxCell id="2NV0xJlRkmsapn9ZG8iD-332" value="" style="edgeStyle=orthogonalEdgeStyle;rounded=0;orthogonalLoop=1;jettySize=auto;html=1;fontColor=#3399FF;strokeColor=#000000;" edge="1" parent="2NV0xJlRkmsapn9ZG8iD-310" source="2NV0xJlRkmsapn9ZG8iD-329" target="2NV0xJlRkmsapn9ZG8iD-331">
          <mxGeometry relative="1" as="geometry" />
        </mxCell>
        <mxCell id="2NV0xJlRkmsapn9ZG8iD-336" value="" style="edgeStyle=orthogonalEdgeStyle;rounded=0;orthogonalLoop=1;jettySize=auto;html=1;fontColor=#3399FF;strokeColor=#000000;" edge="1" parent="2NV0xJlRkmsapn9ZG8iD-310" source="2NV0xJlRkmsapn9ZG8iD-329" target="2NV0xJlRkmsapn9ZG8iD-312">
          <mxGeometry relative="1" as="geometry" />
        </mxCell>
        <mxCell id="2NV0xJlRkmsapn9ZG8iD-329" value="1.目的port80；&lt;br&gt;TCP SYN 报文段；" style="whiteSpace=wrap;html=1;fontColor=#000000;rounded=1;" vertex="1" parent="2NV0xJlRkmsapn9ZG8iD-310">
          <mxGeometry x="25" y="90" width="120" height="60" as="geometry" />
        </mxCell>
        <mxCell id="2NV0xJlRkmsapn9ZG8iD-335" value="" style="edgeStyle=orthogonalEdgeStyle;rounded=0;orthogonalLoop=1;jettySize=auto;html=1;fontColor=#3399FF;strokeColor=#000000;" edge="1" parent="2NV0xJlRkmsapn9ZG8iD-310" source="2NV0xJlRkmsapn9ZG8iD-331" target="2NV0xJlRkmsapn9ZG8iD-334">
          <mxGeometry relative="1" as="geometry" />
        </mxCell>
        <mxCell id="2NV0xJlRkmsapn9ZG8iD-331" value="目的IP：www.google.com的IP；" style="whiteSpace=wrap;html=1;fontColor=#000000;rounded=1;" vertex="1" parent="2NV0xJlRkmsapn9ZG8iD-310">
          <mxGeometry x="25" y="180" width="120" height="60" as="geometry" />
        </mxCell>
        <mxCell id="2NV0xJlRkmsapn9ZG8iD-338" value="" style="edgeStyle=orthogonalEdgeStyle;rounded=0;orthogonalLoop=1;jettySize=auto;html=1;fontColor=#3399FF;strokeColor=#000000;" edge="1" parent="2NV0xJlRkmsapn9ZG8iD-310" source="2NV0xJlRkmsapn9ZG8iD-334" target="2NV0xJlRkmsapn9ZG8iD-337">
          <mxGeometry relative="1" as="geometry" />
        </mxCell>
        <mxCell id="2NV0xJlRkmsapn9ZG8iD-334" value="目的MAC：默认网关MAC；&lt;br&gt;以太网帧" style="whiteSpace=wrap;html=1;fontColor=#000000;rounded=1;" vertex="1" parent="2NV0xJlRkmsapn9ZG8iD-310">
          <mxGeometry x="25" y="270" width="120" height="60" as="geometry" />
        </mxCell>
        <mxCell id="2NV0xJlRkmsapn9ZG8iD-337" value="在子网，ISP，更大的网络上向着目的转发数据报；&lt;br&gt;在不同域之间是BGP协议；&lt;br&gt;最终抵达目标服务器&lt;br&gt;（一次握手）" style="whiteSpace=wrap;html=1;fontColor=#000000;rounded=1;" vertex="1" parent="2NV0xJlRkmsapn9ZG8iD-310">
          <mxGeometry x="17.5" y="380" width="135" height="110" as="geometry" />
        </mxCell>
        <mxCell id="2NV0xJlRkmsapn9ZG8iD-401" value="" style="edgeStyle=orthogonalEdgeStyle;rounded=0;orthogonalLoop=1;jettySize=auto;html=1;fontColor=#3399FF;strokeColor=#000000;entryX=0.006;entryY=0.045;entryDx=0;entryDy=0;entryPerimeter=0;" edge="1" parent="1" source="2NV0xJlRkmsapn9ZG8iD-339" target="2NV0xJlRkmsapn9ZG8iD-375">
          <mxGeometry relative="1" as="geometry">
            <mxPoint x="640" y="-245" as="targetPoint" />
          </mxGeometry>
        </mxCell>
        <mxCell id="2NV0xJlRkmsapn9ZG8iD-339" value="" style="swimlane;startSize=0;" vertex="1" collapsed="1" parent="1">
          <mxGeometry x="510" y="-265" width="50" height="40" as="geometry">
            <mxRectangle x="570" y="-420" width="200" height="555" as="alternateBounds" />
          </mxGeometry>
        </mxCell>
        <mxCell id="2NV0xJlRkmsapn9ZG8iD-366" value="" style="edgeStyle=orthogonalEdgeStyle;rounded=0;orthogonalLoop=1;jettySize=auto;html=1;fontColor=#3399FF;strokeColor=#000000;" edge="1" parent="2NV0xJlRkmsapn9ZG8iD-339" source="2NV0xJlRkmsapn9ZG8iD-341" target="2NV0xJlRkmsapn9ZG8iD-365">
          <mxGeometry relative="1" as="geometry" />
        </mxCell>
        <mxCell id="2NV0xJlRkmsapn9ZG8iD-341" value="抽取TCP SYN 报文并分解到port80的欢迎套接字；&lt;br&gt;生成从www.google.com到A机之间的TCP连接套接字；" style="rounded=1;whiteSpace=wrap;html=1;fontColor=#000000;" vertex="1" parent="2NV0xJlRkmsapn9ZG8iD-339">
          <mxGeometry x="10" y="10" width="180" height="120" as="geometry" />
        </mxCell>
        <mxCell id="2NV0xJlRkmsapn9ZG8iD-368" value="" style="edgeStyle=orthogonalEdgeStyle;rounded=0;orthogonalLoop=1;jettySize=auto;html=1;fontColor=#3399FF;strokeColor=#000000;" edge="1" parent="2NV0xJlRkmsapn9ZG8iD-339" source="2NV0xJlRkmsapn9ZG8iD-365" target="2NV0xJlRkmsapn9ZG8iD-367">
          <mxGeometry relative="1" as="geometry" />
        </mxCell>
        <mxCell id="2NV0xJlRkmsapn9ZG8iD-365" value="生成TCP SYNACK报文" style="rounded=1;whiteSpace=wrap;html=1;fontColor=#000000;" vertex="1" parent="2NV0xJlRkmsapn9ZG8iD-339">
          <mxGeometry x="50" y="180" width="100" height="60" as="geometry" />
        </mxCell>
        <mxCell id="2NV0xJlRkmsapn9ZG8iD-370" value="" style="edgeStyle=orthogonalEdgeStyle;rounded=0;orthogonalLoop=1;jettySize=auto;html=1;fontColor=#3399FF;strokeColor=#000000;" edge="1" parent="2NV0xJlRkmsapn9ZG8iD-339" source="2NV0xJlRkmsapn9ZG8iD-367" target="2NV0xJlRkmsapn9ZG8iD-369">
          <mxGeometry relative="1" as="geometry" />
        </mxCell>
        <mxCell id="2NV0xJlRkmsapn9ZG8iD-367" value="IP" style="rounded=1;whiteSpace=wrap;html=1;fontColor=#000000;" vertex="1" parent="2NV0xJlRkmsapn9ZG8iD-339">
          <mxGeometry x="50" y="280" width="100" height="30" as="geometry" />
        </mxCell>
        <mxCell id="2NV0xJlRkmsapn9ZG8iD-372" value="" style="edgeStyle=orthogonalEdgeStyle;rounded=0;orthogonalLoop=1;jettySize=auto;html=1;fontColor=#3399FF;strokeColor=#000000;" edge="1" parent="2NV0xJlRkmsapn9ZG8iD-339" source="2NV0xJlRkmsapn9ZG8iD-369" target="2NV0xJlRkmsapn9ZG8iD-371">
          <mxGeometry relative="1" as="geometry" />
        </mxCell>
        <mxCell id="2NV0xJlRkmsapn9ZG8iD-369" value="以太网帧" style="rounded=1;whiteSpace=wrap;html=1;fontColor=#000000;" vertex="1" parent="2NV0xJlRkmsapn9ZG8iD-339">
          <mxGeometry x="50" y="340" width="100" height="30" as="geometry" />
        </mxCell>
        <mxCell id="2NV0xJlRkmsapn9ZG8iD-374" value="" style="edgeStyle=orthogonalEdgeStyle;rounded=0;orthogonalLoop=1;jettySize=auto;html=1;fontColor=#3399FF;strokeColor=#000000;" edge="1" parent="2NV0xJlRkmsapn9ZG8iD-339" source="2NV0xJlRkmsapn9ZG8iD-371" target="2NV0xJlRkmsapn9ZG8iD-373">
          <mxGeometry relative="1" as="geometry" />
        </mxCell>
        <mxCell id="2NV0xJlRkmsapn9ZG8iD-371" value="反向BGP，送达A机" style="rounded=1;whiteSpace=wrap;html=1;fontColor=#000000;" vertex="1" parent="2NV0xJlRkmsapn9ZG8iD-339">
          <mxGeometry x="50" y="400" width="100" height="30" as="geometry" />
        </mxCell>
        <mxCell id="2NV0xJlRkmsapn9ZG8iD-373" value="分解拿到TCP连接套接字，进入连接状态（二次握手）；" style="whiteSpace=wrap;html=1;fontColor=#000000;rounded=1;" vertex="1" parent="2NV0xJlRkmsapn9ZG8iD-339">
          <mxGeometry x="40" y="470" width="120" height="60" as="geometry" />
        </mxCell>
        <mxCell id="2NV0xJlRkmsapn9ZG8iD-375" value="" style="swimlane;startSize=0;" vertex="1" collapsed="1" parent="1">
          <mxGeometry x="720" y="-250" width="50" height="40" as="geometry">
            <mxRectangle x="600" y="-400" width="200" height="940" as="alternateBounds" />
          </mxGeometry>
        </mxCell>
        <mxCell id="2NV0xJlRkmsapn9ZG8iD-376" value="" style="edgeStyle=orthogonalEdgeStyle;rounded=0;orthogonalLoop=1;jettySize=auto;html=1;fontColor=#3399FF;strokeColor=#000000;" edge="1" parent="2NV0xJlRkmsapn9ZG8iD-375" source="2NV0xJlRkmsapn9ZG8iD-377" target="2NV0xJlRkmsapn9ZG8iD-379">
          <mxGeometry relative="1" as="geometry" />
        </mxCell>
        <mxCell id="2NV0xJlRkmsapn9ZG8iD-377" value="浏览器生成HTTP请求报文；" style="rounded=1;whiteSpace=wrap;html=1;fontColor=#000000;" vertex="1" parent="2NV0xJlRkmsapn9ZG8iD-375">
          <mxGeometry x="10" y="10" width="140" height="60" as="geometry" />
        </mxCell>
        <mxCell id="2NV0xJlRkmsapn9ZG8iD-378" value="" style="edgeStyle=orthogonalEdgeStyle;rounded=0;orthogonalLoop=1;jettySize=auto;html=1;fontColor=#3399FF;strokeColor=#000000;" edge="1" parent="2NV0xJlRkmsapn9ZG8iD-375" source="2NV0xJlRkmsapn9ZG8iD-379" target="2NV0xJlRkmsapn9ZG8iD-381">
          <mxGeometry relative="1" as="geometry" />
        </mxCell>
        <mxCell id="2NV0xJlRkmsapn9ZG8iD-379" value="写入TCP套接字" style="rounded=1;whiteSpace=wrap;html=1;fontColor=#000000;" vertex="1" parent="2NV0xJlRkmsapn9ZG8iD-375">
          <mxGeometry x="30" y="110" width="100" height="60" as="geometry" />
        </mxCell>
        <mxCell id="2NV0xJlRkmsapn9ZG8iD-380" value="" style="edgeStyle=orthogonalEdgeStyle;rounded=0;orthogonalLoop=1;jettySize=auto;html=1;fontColor=#3399FF;strokeColor=#000000;" edge="1" parent="2NV0xJlRkmsapn9ZG8iD-375" source="2NV0xJlRkmsapn9ZG8iD-381" target="2NV0xJlRkmsapn9ZG8iD-383">
          <mxGeometry relative="1" as="geometry" />
        </mxCell>
        <mxCell id="2NV0xJlRkmsapn9ZG8iD-381" value="IP" style="rounded=1;whiteSpace=wrap;html=1;fontColor=#000000;" vertex="1" parent="2NV0xJlRkmsapn9ZG8iD-375">
          <mxGeometry x="30" y="210" width="100" height="30" as="geometry" />
        </mxCell>
        <mxCell id="2NV0xJlRkmsapn9ZG8iD-382" value="" style="edgeStyle=orthogonalEdgeStyle;rounded=0;orthogonalLoop=1;jettySize=auto;html=1;fontColor=#3399FF;strokeColor=#000000;" edge="1" parent="2NV0xJlRkmsapn9ZG8iD-375" source="2NV0xJlRkmsapn9ZG8iD-383" target="2NV0xJlRkmsapn9ZG8iD-385">
          <mxGeometry relative="1" as="geometry" />
        </mxCell>
        <mxCell id="2NV0xJlRkmsapn9ZG8iD-383" value="以太网帧" style="rounded=1;whiteSpace=wrap;html=1;fontColor=#000000;" vertex="1" parent="2NV0xJlRkmsapn9ZG8iD-375">
          <mxGeometry x="30" y="280" width="100" height="30" as="geometry" />
        </mxCell>
        <mxCell id="2NV0xJlRkmsapn9ZG8iD-384" value="" style="edgeStyle=orthogonalEdgeStyle;rounded=0;orthogonalLoop=1;jettySize=auto;html=1;fontColor=#3399FF;strokeColor=#000000;" edge="1" parent="2NV0xJlRkmsapn9ZG8iD-375" source="2NV0xJlRkmsapn9ZG8iD-385" target="2NV0xJlRkmsapn9ZG8iD-386">
          <mxGeometry relative="1" as="geometry" />
        </mxCell>
        <mxCell id="2NV0xJlRkmsapn9ZG8iD-385" value="送达HTTP服务器&lt;br&gt;（三次握手）" style="rounded=1;whiteSpace=wrap;html=1;fontColor=#000000;" vertex="1" parent="2NV0xJlRkmsapn9ZG8iD-375">
          <mxGeometry x="30" y="350" width="100" height="30" as="geometry" />
        </mxCell>
        <mxCell id="2NV0xJlRkmsapn9ZG8iD-404" value="" style="edgeStyle=orthogonalEdgeStyle;rounded=0;orthogonalLoop=1;jettySize=auto;html=1;fontColor=#3399FF;strokeColor=#000000;" edge="1" parent="2NV0xJlRkmsapn9ZG8iD-375" source="2NV0xJlRkmsapn9ZG8iD-386" target="2NV0xJlRkmsapn9ZG8iD-403">
          <mxGeometry relative="1" as="geometry" />
        </mxCell>
        <mxCell id="2NV0xJlRkmsapn9ZG8iD-386" value="抽取HTTP GET 报文" style="whiteSpace=wrap;html=1;fontColor=#000000;rounded=1;" vertex="1" parent="2NV0xJlRkmsapn9ZG8iD-375">
          <mxGeometry x="20" y="410" width="120" height="30" as="geometry" />
        </mxCell>
        <mxCell id="2NV0xJlRkmsapn9ZG8iD-406" value="" style="edgeStyle=orthogonalEdgeStyle;rounded=0;orthogonalLoop=1;jettySize=auto;html=1;fontColor=#3399FF;strokeColor=#000000;" edge="1" parent="2NV0xJlRkmsapn9ZG8iD-375" source="2NV0xJlRkmsapn9ZG8iD-403" target="2NV0xJlRkmsapn9ZG8iD-405">
          <mxGeometry relative="1" as="geometry" />
        </mxCell>
        <mxCell id="2NV0xJlRkmsapn9ZG8iD-403" value="生成HTTP OK报文；&lt;br&gt;放入HTML 页面" style="whiteSpace=wrap;html=1;fontColor=#000000;rounded=1;" vertex="1" parent="2NV0xJlRkmsapn9ZG8iD-375">
          <mxGeometry x="20" y="470" width="120" height="30" as="geometry" />
        </mxCell>
        <mxCell id="2NV0xJlRkmsapn9ZG8iD-408" value="" style="edgeStyle=orthogonalEdgeStyle;rounded=0;orthogonalLoop=1;jettySize=auto;html=1;fontColor=#3399FF;strokeColor=#000000;" edge="1" parent="2NV0xJlRkmsapn9ZG8iD-375" source="2NV0xJlRkmsapn9ZG8iD-405" target="2NV0xJlRkmsapn9ZG8iD-407">
          <mxGeometry relative="1" as="geometry" />
        </mxCell>
        <mxCell id="2NV0xJlRkmsapn9ZG8iD-405" value="写入TCP套接字" style="whiteSpace=wrap;html=1;fontColor=#000000;rounded=1;" vertex="1" parent="2NV0xJlRkmsapn9ZG8iD-375">
          <mxGeometry x="25" y="530" width="110" height="30" as="geometry" />
        </mxCell>
        <mxCell id="2NV0xJlRkmsapn9ZG8iD-410" value="" style="edgeStyle=orthogonalEdgeStyle;rounded=0;orthogonalLoop=1;jettySize=auto;html=1;fontColor=#3399FF;strokeColor=#000000;" edge="1" parent="2NV0xJlRkmsapn9ZG8iD-375" source="2NV0xJlRkmsapn9ZG8iD-407" target="2NV0xJlRkmsapn9ZG8iD-409">
          <mxGeometry relative="1" as="geometry" />
        </mxCell>
        <mxCell id="2NV0xJlRkmsapn9ZG8iD-407" value="通过BGP协议转发；&lt;br&gt;送达A机；" style="whiteSpace=wrap;html=1;fontColor=#000000;rounded=1;" vertex="1" parent="2NV0xJlRkmsapn9ZG8iD-375">
          <mxGeometry x="20" y="625" width="120" height="60" as="geometry" />
        </mxCell>
        <mxCell id="2NV0xJlRkmsapn9ZG8iD-409" value="抽取HTTP OK报文里的web对象；&lt;br&gt;然后一系列前端、后端什么dom树渲染一大堆；把web页面显示在浏览器上；&lt;br&gt;结束！！！" style="whiteSpace=wrap;html=1;fontColor=#000000;rounded=1;" vertex="1" parent="2NV0xJlRkmsapn9ZG8iD-375">
          <mxGeometry x="7.5" y="790" width="185" height="125" as="geometry" />
        </mxCell>
        <mxCell id="2NV0xJlRkmsapn9ZG8iD-411" value="最终阶段！！！" style="text;html=1;align=center;verticalAlign=middle;resizable=0;points=[];autosize=1;strokeColor=none;fillColor=none;fontColor=#3399FF;" vertex="1" parent="1">
          <mxGeometry x="570" y="-270" width="100" height="20" as="geometry" />
        </mxCell>
      </root>
    </mxGraphModel>
  </diagram>
</mxfile>
